C:\Users\u0088756\Documents\documenten\software\SoftwareProjects\DC_TrackingSimulation\Data\Patient20\InputData\GRF_data.mot
nRows=10
nColumns=19

name C:\Users\u0088756\Documents\documenten\software\SoftwareProjects\DC_TrackingSimulation\Data\Patient20\InputData\GRF_data.mot
datacolumns 19
datarows 10
range 0.8580000000 0.8670000000
endheader
time	ground_force_vx	ground_force_vy	ground_force_vz	ground_force_px	ground_force_py	ground_force_pz	1_ground_force_vx	1_ground_force_vy	1_ground_force_vz	1_ground_force_px	1_ground_force_py	1_ground_force_pz	ground_torque_x	ground_torque_y	ground_torque_z	1_ground_torque_x	1_ground_torque_y	1_ground_torque_z
        0.8580000000	        0.0000000000	        0.0000000000	        0.0000000000	        0.9428532031	        0.0003444810	       -0.0000299160	      -22.6155307640	      531.1801926961	      -51.8819235527	        1.2838287648	        0.0003444810	        0.0906698866	        0.0000000000	        0.0000000000	        0.0000000000	        0.0000000000	        2.2495157290	        0.0000000000	
        0.8590000000	        0.0000000000	        0.0000000000	        0.0000000000	        0.9439484789	        0.0003476726	       -0.0000289560	      -22.2367943809	      530.0917340156	      -51.8266533969	        1.2840337296	        0.0003476726	        0.0907826204	        0.0000000000	        0.0000000000	        0.0000000000	        0.0000000000	        2.2767012789	        0.0000000000	
        0.8600000000	        0.0000000000	        0.0000000000	        0.0000000000	        0.9450437547	        0.0003508641	       -0.0000279961	      -21.8628280190	      529.0269849482	      -51.7737037176	        1.2842383263	        0.0003508641	        0.0908954954	        0.0000000000	        0.0000000000	        0.0000000000	        0.0000000000	        2.3035984670	        0.0000000000	
        0.8610000000	        0.0000000000	        0.0000000000	        0.0000000000	        0.9461384524	        0.0003533606	       -0.0000267309	      -21.4935472573	      527.9863568370	      -51.7230119495	        1.2844420281	        0.0003533606	        0.0910087597	        0.0000000000	        0.0000000000	        0.0000000000	        0.0000000000	        2.3302037980	        0.0000000000	
        0.8620000000	        0.0000000000	        0.0000000000	        0.0000000000	        0.9472331501	        0.0003558570	       -0.0000254658	      -21.1288656553	      526.9702413438	      -51.6745139708	        1.2846454715	        0.0003558570	        0.0911220501	        0.0000000000	        0.0000000000	        0.0000000000	        0.0000000000	        2.3565140561	        0.0000000000	
        0.8630000000	        0.0000000000	        0.0000000000	        0.0000000000	        0.9483278479	        0.0003583534	       -0.0000242006	      -20.7686948174	      525.9790102100	      -51.6281441584	        1.2848487211	        0.0003583534	        0.0912353083	        0.0000000000	        0.0000000000	        0.0000000000	        0.0000000000	        2.3825263216	        0.0000000000	
        0.8640000000	        0.0000000000	        0.0000000000	        0.0000000000	        0.9494225456	        0.0003608498	       -0.0000229355	      -20.4129444552	      525.0130150403	      -51.5838354469	        1.2850518477	        0.0003608498	        0.0913484753	        0.0000000000	        0.0000000000	        0.0000000000	        0.0000000000	        2.4082379876	        0.0000000000	
        0.8650000000	        0.0000000000	        0.0000000000	        0.0000000000	        0.9505172434	        0.0003633462	       -0.0000216703	      -20.0615224471	      524.0725871088	      -51.5415193872	        1.2852549284	        0.0003633462	        0.0914614918	        0.0000000000	        0.0000000000	        0.0000000000	        0.0000000000	        2.4336467773	        0.0000000000	
        0.8660000000	        0.0000000000	        0.0000000000	        0.0000000000	        0.9516113918	        0.0003651413	       -0.0000203804	      -19.7143348964	      523.1580371867	      -51.5011262077	        1.2854574960	        0.0003651413	        0.0915743229	        0.0000000000	        0.0000000000	        0.0000000000	        0.0000000000	        2.4587507616	        0.0000000000	
        0.8670000000	        0.0000000000	        0.0000000000	        0.0000000000	        0.9527055401	        0.0003669363	       -0.0000190905	      -19.3712861862	      522.2696553933	      -51.4625848759	        1.2856601877	        0.0003669363	        0.0916868843	        0.0000000000	        0.0000000000	        0.0000000000	        0.0000000000	        2.4835483775	        0.0000000000	
